<svg width="25" height="24" viewBox="0 0 25 24" fill="none" xmlns="http://www.w3.org/2000/svg">
<path d="M12.5 4C10.3783 4 8.34344 4.84285 6.84315 6.34315C5.34285 7.84344 4.5 9.87827 4.5 12H7.5C8.03043 12 8.53914 12.2107 8.91421 12.5858C9.28929 12.9609 9.5 13.4696 9.5 14V19C9.5 19.5304 9.28929 20.0391 8.91421 20.4142C8.53914 20.7893 8.03043 21 7.5 21H4.5C3.96957 21 3.46086 20.7893 3.08579 20.4142C2.71071 20.0391 2.5 19.5304 2.5 19V12C2.5 6.477 6.977 2 12.5 2C18.023 2 22.5 6.477 22.5 12V19C22.5 19.5304 22.2893 20.0391 21.9142 20.4142C21.5391 20.7893 21.0304 21 20.5 21H17.5C16.9696 21 16.4609 20.7893 16.0858 20.4142C15.7107 20.0391 15.5 19.5304 15.5 19V14C15.5 13.4696 15.7107 12.9609 16.0858 12.5858C16.4609 12.2107 16.9696 12 17.5 12H20.5C20.5 9.87827 19.6571 7.84344 18.1569 6.34315C16.6566 4.84285 14.6217 4 12.5 4ZM4.5 14V19H7.5V14H4.5ZM17.5 14V19H20.5V14H17.5Z" fill="#242424"/>
</svg>
