<svg width="60" height="44" viewBox="0 0 60 44" fill="none" xmlns="http://www.w3.org/2000/svg">
<path fill-rule="evenodd" clip-rule="evenodd" d="M34.3079 0.282093C33.2175 0.99594 32.6657 1.71165 32.1954 3.02256C31.8531 3.97631 31.4912 5.44271 31.2394 6.89603C31.1022 7.68819 30.8974 9.20637 30.9251 9.2266C31.0949 9.35054 31.9451 10.0869 31.9326 10.0991C31.9232 10.1083 31.741 10.1493 31.5278 10.1901C31.3146 10.231 31.0905 10.2747 31.0299 10.2873C30.9257 10.3089 30.9338 10.3271 31.1765 10.6151C31.507 11.0075 31.7262 11.3646 31.8545 11.7193C31.9947 12.1076 31.9659 12.6499 31.7838 13.0439C31.6371 13.3615 31.6756 13.3586 31.0875 13.0969C30.888 13.0081 30.7247 12.9576 30.7247 12.9847C30.7247 13.0118 30.7465 13.124 30.7731 13.234C30.7997 13.3441 31.0313 14.4101 31.2876 15.6029C31.544 16.7957 31.7625 17.7803 31.7733 17.7908C31.7959 17.8129 31.8703 17.5716 32.3066 16.0589L32.6232 14.9613L32.6206 12.3842C32.6181 9.87903 32.6526 8.87493 32.8059 6.99148C33.0406 4.10612 33.4141 2.67346 34.4385 0.727782C34.6492 0.327478 34.803 0 34.7802 0C34.7574 0 34.5448 0.126945 34.3079 0.282093ZM34.9383 1.0921C34.6311 1.46902 34.3683 1.92383 34.1767 2.41003C33.7085 3.59796 33.5557 4.81982 33.4131 8.51863C33.2173 13.592 32.963 15.7742 32.3119 17.9679C31.8012 19.6888 31.0122 21.4866 30.1234 22.955L30.0222 23.122L30.137 23.0265C30.516 22.711 31.8897 20.8548 32.4678 19.8768C34.158 17.0175 34.849 14.5685 35.1811 10.2605C35.2533 9.32424 35.2583 2.36174 35.1875 1.38398L35.1477 0.835159L34.9383 1.0921ZM7.85178 19.0699C7.01809 19.1022 5.55901 19.1916 4.7483 19.2602C3.5157 19.3643 2.00194 19.536 1.96064 19.5763C1.95194 19.5849 1.95766 20.0801 1.9734 20.6769C2.00663 21.9352 1.91387 21.8056 2.69922 21.6912C3.89599 21.517 5.85358 21.3267 7.68072 21.2069C9.39731 21.0945 13.182 21.0942 14.6697 21.2064C18.8126 21.519 23.2482 22.432 27.7922 23.9075C28.4239 24.1126 28.9471 24.2748 28.9549 24.268C28.9827 24.2437 27.9467 23.6896 27.0347 23.2411C23.7315 21.6164 19.9573 20.3141 16.6735 19.6659C14.5246 19.2417 12.9221 19.095 10.1733 19.0707C9.12494 19.0613 8.08026 19.061 7.85178 19.0699ZM48.5391 19.0721C47.1431 19.1017 45.4643 19.2387 44.1649 19.4291C40.5125 19.9644 36.2057 21.3628 32.321 23.2747C31.4584 23.6992 30.4993 24.2079 30.4214 24.2822C30.4025 24.3003 30.9193 24.1426 31.57 23.9318C36.3843 22.3719 40.9783 21.4508 45.2402 21.1908C46.4443 21.1174 49.9927 21.1306 51.4471 21.2139C53.3341 21.322 55.7512 21.5563 57.0676 21.7585C57.2154 21.7812 57.3474 21.7895 57.3608 21.777C57.3979 21.7423 57.4388 19.6078 57.4027 19.5862C57.3236 19.5386 55.4003 19.3322 54.1352 19.2354C52.4993 19.1104 50.0751 19.0396 48.5391 19.0721ZM9.68454 21.5532C7.68751 21.6093 4.85699 21.8418 2.59785 22.1352L1.9625 22.2177L1.94959 23.7848L1.93669 25.3518L2.04734 25.326C2.58329 25.201 5.16856 24.7435 6.26338 24.5799C12.0807 23.7107 16.5271 23.5456 22.3184 23.9838C24.3105 24.1345 26.9495 24.424 28.5733 24.6698C28.9089 24.7206 29.1915 24.7543 29.2013 24.7447C29.2111 24.7351 29.1126 24.6952 28.9823 24.6561C28.8519 24.6169 28.4154 24.4857 28.0122 24.3644C23.4229 22.9841 18.2396 21.9724 14.0778 21.6446C13.1856 21.5743 10.7418 21.5235 9.68454 21.5532ZM46.0954 21.6224C41.7657 21.8781 35.9981 22.9812 31.0738 24.4954C30.6341 24.6306 30.2973 24.7486 30.3253 24.7578C30.3533 24.7669 30.7571 24.7194 31.2225 24.6522C32.4584 24.4739 32.6652 24.447 33.6082 24.3417C35.4746 24.1334 37.0816 23.9986 39.1065 23.8806C40.7848 23.7829 44.7979 23.7677 46.071 23.8543C49.1046 24.0607 51.5246 24.3402 54.404 24.817C55.561 25.0086 57.2611 25.325 57.3873 25.3723C57.4488 25.3954 57.4586 25.1871 57.4586 23.8458C57.4586 22.9915 57.4405 22.2816 57.4184 22.2683C57.3139 22.2052 54.4657 21.8838 52.9378 21.7626C50.779 21.5914 47.6909 21.5281 46.0954 21.6224ZM58.4835 23.289C58.4765 23.7125 58.2628 26.0512 58.228 26.0852C58.2105 26.1023 57.7828 26.0396 57.2775 25.9459C54.0495 25.3473 50.7113 24.9695 46.3642 24.7105C45.0056 24.6296 39.5254 24.6295 38.2268 24.7105C35.3735 24.8883 33.5089 25.0867 31.1645 25.4621L30.1137 25.6303L29.3318 25.4408C27.5977 25.0208 26.0115 24.79 23.5402 24.5983C22.2204 24.4959 18.2346 24.4553 16.4047 24.5256C12.056 24.6926 7.28777 25.1581 2.85293 25.8488C2.24054 25.9442 1.72971 26.0126 1.71773 26.0009C1.70571 25.9892 1.64995 25.5943 1.59374 25.1235C1.53754 24.6526 1.46394 24.0741 1.43021 23.8378C1.37137 23.4262 1.36668 23.4153 1.31727 23.5754C1.28892 23.6672 1.12011 24.2095 0.94211 24.7804C0.111941 27.443 -0.020409 27.883 0.00231727 27.9051C0.0157087 27.9182 0.638164 27.9048 1.38554 27.8754C2.13297 27.846 3.29431 27.8004 3.96632 27.7741C10.9314 27.5013 18.6127 27.0842 25.5318 26.6031L26.5704 26.5309L27.016 26.8433C27.8463 27.4255 28.7452 27.833 29.5499 27.9923C30.8422 28.248 32.1381 27.7961 33.7689 26.5211L33.9382 26.3887L36.0825 26.5792C38.235 26.7703 39.9969 26.9199 41.1348 27.008C46.1084 27.3932 49.2607 27.5982 52.9133 27.7742C53.4644 27.8007 54.1242 27.8335 54.3795 27.847C54.839 27.8714 57.4568 27.9785 59.1325 28.0415C59.8887 28.0699 60 28.0648 60 28.0019C60 27.9623 59.8481 27.4279 59.6624 26.8144C59.4767 26.201 59.1553 25.1299 58.9481 24.4344C58.741 23.7388 58.5527 23.1375 58.5297 23.0981C58.5025 23.0514 58.4864 23.1179 58.4835 23.289ZM44.4518 33.0725C43.6077 33.2035 42.8803 33.6516 42.4242 34.3214C41.7685 35.2846 41.6828 36.6322 42.2105 37.6844C42.7916 38.8429 43.8608 39.4289 45.2636 39.3575C46.4901 39.2951 47.3428 38.7467 47.9011 37.6611C48.1143 37.2466 48.2215 36.7493 48.2207 36.1786C48.2198 35.5601 48.1326 35.1777 47.8724 34.652C47.5151 33.9302 46.7843 33.3479 45.9819 33.1458C45.6074 33.0514 44.828 33.014 44.4518 33.0725ZM11.8594 33.5495V33.8836H13.6677C15.2753 33.8836 15.4761 33.8919 15.4761 33.9582C15.4761 33.9993 15.2938 34.2409 15.071 34.4951C14.8482 34.7494 14.0235 35.6913 13.2382 36.5883L11.8105 38.2193V38.724V39.2286H14.1076H16.4047V38.8951V38.5616L14.5149 38.5491C13.2381 38.5407 12.6195 38.5202 12.6078 38.486C12.5983 38.4582 13.4267 37.4812 14.4487 36.3148L16.3069 34.1942V33.7048V33.2155H14.0832H11.8594V33.5495ZM19.2882 35.2414C19.2882 37.4149 19.3014 37.5642 19.5389 38.0789C19.9104 38.8837 20.5859 39.3013 21.6074 39.3576C23.0398 39.4365 23.9854 38.8355 24.3054 37.6427C24.3721 37.3944 24.3893 36.9924 24.4069 35.2795L24.428 33.2155H24.0086H23.5891L23.5887 35.0886C23.5885 36.142 23.5664 37.0942 23.5381 37.2642C23.3894 38.1592 22.8268 38.6082 21.8541 38.6082C21.1439 38.6082 20.659 38.3833 20.3637 37.9167C20.1318 37.5503 20.1201 37.4231 20.1196 35.2557L20.1191 33.2155H19.7036H19.2882V35.2414ZM27.7434 36.2221V39.2286H28.1588H28.5742V37.8208V36.4129L28.8552 36.4134L29.1363 36.4139L30.3825 37.8191L31.6288 39.2243L32.1298 39.2265C32.4053 39.2277 32.6307 39.2166 32.6307 39.2018C32.6307 39.1871 31.9717 38.4408 31.1662 37.5434C30.3607 36.6461 29.7014 35.8904 29.7011 35.8641C29.7007 35.8379 30.1892 35.2705 30.7867 34.6034C31.3843 33.9362 31.9019 33.351 31.9371 33.3029C31.9977 33.2199 31.9775 33.2155 31.5402 33.2155H31.0795L29.8391 34.6041L28.5987 35.9928L28.5857 34.6041L28.5728 33.2155H28.1581H27.7434V36.2221ZM35.1722 36.2221V39.2286H35.5876H36.003V37.8208V36.4129H36.2855H36.5678L37.1551 37.0691C37.4781 37.4301 38.0446 38.0636 38.414 38.477L39.0855 39.2286H39.6008H40.116L39.9534 39.0452C39.8639 38.9442 39.1969 38.2009 38.4711 37.3932C37.7454 36.5856 37.1516 35.8968 37.1516 35.8625C37.1516 35.8282 37.6734 35.2187 38.3112 34.5078L39.4709 33.2155H38.9917H38.5126L37.3317 34.5454C36.6822 35.2768 36.1176 35.9023 36.0769 35.9352C36.0112 35.9884 36.003 35.8403 36.003 34.6053V33.2155H35.5876H35.1722V36.2221ZM45.7915 33.8873C46.4058 34.0878 46.8405 34.4625 47.1207 35.0334C47.4753 35.756 47.4691 36.7036 47.1051 37.4002C46.8301 37.9266 46.286 38.3834 45.754 38.5344C45.3576 38.6469 44.6278 38.6329 44.2768 38.506C43.4848 38.2198 42.9534 37.6025 42.7694 36.7548C42.4849 35.444 43.1965 34.1825 44.4038 33.8574C44.7727 33.7581 45.4394 33.7724 45.7915 33.8873ZM20.8359 40.9308C20.818 40.9482 20.8033 41.6355 20.8033 42.4579V43.9532H20.9988H21.1943V43.4283V42.9033L21.3531 42.9042C21.4961 42.905 21.555 42.9574 21.9434 43.4292L22.3748 43.9532H22.591C22.7893 43.9532 22.8688 43.9006 22.7649 43.8379C22.7417 43.824 22.5088 43.5549 22.2472 43.2399L21.7716 42.6673L22.1672 42.2257C22.3848 41.9828 22.5628 41.7675 22.5628 41.7472C22.5628 41.7269 22.4786 41.7102 22.3757 41.7102C22.1972 41.7102 22.1663 41.7359 21.7037 42.2671L21.2187 42.824L21.2055 41.8615L21.1923 40.8989H21.0304C20.9413 40.8989 20.8538 40.9133 20.8359 40.9308ZM23.2568 40.9562C23.1092 41.1003 23.2473 41.3762 23.4669 41.3762C23.684 41.3762 23.7918 41.186 23.6851 40.9912C23.6271 40.8854 23.3523 40.863 23.2568 40.9562ZM29.1956 40.9285C29.1764 40.9472 29.1607 41.6355 29.1607 42.4579V43.9532H29.3318C29.5021 43.9532 29.5028 43.9523 29.5028 43.7368V43.5204L29.6609 43.6962C29.859 43.9165 30.0633 44.0013 30.3932 43.9999C30.8462 43.9981 31.2153 43.7533 31.3989 43.3328C31.499 43.1037 31.4936 42.5476 31.3889 42.3068C31.1017 41.6458 30.2245 41.4422 29.7366 41.9233L29.6037 42.0542L29.59 41.4885L29.5761 40.9228L29.4033 40.9086C29.3083 40.9008 29.2148 40.9097 29.1956 40.9285ZM24.6155 41.3733V41.7102H24.42C24.2291 41.7102 24.2245 41.7142 24.2245 41.8773C24.2245 42.0403 24.2291 42.0443 24.42 42.0443H24.6155L24.6157 42.7721C24.6158 43.4179 24.6269 43.5177 24.7145 43.6578C24.8425 43.8629 25.0733 43.9532 25.4692 43.9532H25.7884V43.7862V43.6192H25.5262C25.3349 43.6192 25.2292 43.5924 25.1352 43.5203C25.0068 43.4216 25.0064 43.4197 25.0064 42.7348V42.0483L25.3852 42.0344L25.764 42.0204V41.8773V41.7341L25.3874 41.7202L25.0108 41.7063L24.9964 41.3862L24.982 41.066L24.7987 41.0512L24.6155 41.0363V41.3733ZM26.8372 41.7725C26.5729 41.8959 26.3515 42.1175 26.2453 42.3649C26.1493 42.5887 26.1629 43.1259 26.2706 43.3567C26.3851 43.6022 26.7071 43.8851 26.9457 43.9498C27.2433 44.0305 27.645 44.01 27.89 43.9015C28.3643 43.6915 28.5477 43.3928 28.549 42.828C28.5497 42.4814 28.5348 42.4189 28.4019 42.2089C28.1849 41.8663 27.8854 41.7009 27.4374 41.6767C27.1387 41.6604 27.0452 41.6753 26.8372 41.7725ZM34.9694 41.7289C34.2112 41.9934 33.9532 42.9462 34.4631 43.599C34.7249 43.9342 35.3173 44.087 35.8232 43.9498C36.0487 43.8887 36.3681 43.6173 36.4906 43.3827C36.8011 42.7884 36.5453 42.0545 35.9301 41.7747C35.6512 41.6479 35.2556 41.6291 34.9694 41.7289ZM37.98 41.7267C37.898 41.7632 37.7729 41.8604 37.7019 41.9428L37.5729 42.0925L37.5577 41.9133C37.5439 41.7497 37.5288 41.7328 37.3837 41.7192L37.2249 41.7042V42.8287V43.9532H37.4204H37.6159L37.6162 43.2732C37.6163 42.8991 37.6396 42.5115 37.668 42.4117C37.7726 42.0437 38.2978 41.9158 38.6048 42.1835L38.7644 42.3227L38.7807 43.1379L38.7971 43.9532H38.9923H39.1876L39.1715 43.0823C39.154 42.1336 39.1198 42.0036 38.833 41.7949C38.667 41.6741 38.1847 41.6355 37.98 41.7267ZM23.0026 41.8753C23.0026 42.0366 23.0104 42.0443 23.1737 42.0443H23.3447V43.0015V43.9587L23.5525 43.944L23.7602 43.9294V42.8317V41.7341L23.3814 41.7202L23.0026 41.7062V41.8753ZM31.8488 41.7421C31.8488 41.7595 32.0027 42.0044 32.1909 42.2862C32.379 42.568 32.533 42.8123 32.533 42.8292C32.533 42.846 32.368 43.0928 32.1664 43.3775C31.9648 43.6622 31.7999 43.9082 31.7999 43.9242C31.7999 43.9402 31.8878 43.9532 31.9951 43.9532C32.1877 43.9532 32.1947 43.9469 32.4961 43.501C32.6642 43.2523 32.8171 43.0483 32.8358 43.0476C32.8544 43.047 33.0068 43.2419 33.1743 43.4807C33.3419 43.7196 33.5057 43.925 33.5384 43.9373C33.5712 43.9496 33.6776 43.9528 33.7749 43.9445L33.9519 43.9294L33.5385 43.3597C33.3111 43.0463 33.1394 42.7671 33.1568 42.7393C33.1742 42.7114 33.3265 42.4738 33.4952 42.2113L33.802 41.7341L33.6516 41.7188C33.5688 41.7104 33.4727 41.7142 33.438 41.7272C33.4032 41.7402 33.2588 41.9384 33.117 42.1676L32.8592 42.5844L32.7683 42.4747C32.7183 42.4144 32.5844 42.2179 32.4708 42.0381C32.268 41.717 32.2604 41.7111 32.0565 41.7107C31.9422 41.7104 31.8488 41.7246 31.8488 41.7421ZM27.8144 42.1386C28.0479 42.2798 28.1567 42.5006 28.1579 42.8352C28.1591 43.2187 27.9954 43.4765 27.6747 43.5961C26.9514 43.8659 26.3296 43.1625 26.6615 42.45C26.7665 42.2245 26.848 42.1517 27.0954 42.0626C27.3162 41.9831 27.6083 42.014 27.8144 42.1386ZM30.6607 42.0895C31.0288 42.2527 31.1775 42.7743 30.9879 43.2371C30.8027 43.689 30.2131 43.8062 29.8202 43.4693C29.6125 43.2913 29.5307 43.0272 29.5753 42.6788C29.6456 42.1293 30.1423 41.8597 30.6607 42.0895ZM35.6658 42.0508C36.0421 42.1736 36.2259 42.4848 36.1877 42.9345C36.1533 43.3395 35.9087 43.5956 35.5057 43.6488C35.0119 43.7139 34.6276 43.3579 34.6276 42.8353C34.6276 42.2405 35.116 41.8714 35.6658 42.0508Z" fill="#3F51B5"/>
</svg>
