<svg width="36" height="40" viewBox="0 0 36 40" fill="none" xmlns="http://www.w3.org/2000/svg">
<path d="M35 5.99452C29.1836 5.99452 21.5273 4.03162 18.8008 0.394518C18.7035 0.276339 18.5812 0.181165 18.4427 0.115826C18.3043 0.0504869 18.1531 0.0166016 18 0.0166016C17.8469 0.0166016 17.6957 0.0504869 17.5573 0.115826C17.4188 0.181165 17.2965 0.276339 17.1992 0.394518C14.4727 4.03162 6.8164 5.99452 1 5.99452C0.734784 5.99452 0.48043 6.09988 0.292893 6.28741C0.105357 6.47495 0 6.7293 0 6.99452V19.9945C0 30.9906 9.5488 37.6195 17.7246 39.9554C17.9045 40.0076 18.0955 40.0076 18.2754 39.9554C26.4512 37.6195 36 30.9906 36 19.9945V6.99452C36 6.7293 35.8946 6.47495 35.7071 6.28741C35.5196 6.09988 35.2652 5.99452 35 5.99452ZM34 19.9945C34 29.7562 25.4453 35.7406 18 37.9535C10.5547 35.7406 2 29.7562 2 19.9945V7.97692C7.7793 7.78162 14.6152 5.91832 18 2.51402C21.3848 5.91832 28.2207 7.78162 34 7.97692V19.9945Z" fill="#3F51B5"/>
<path d="M15.707 19.2875C15.6147 19.192 15.5044 19.1158 15.3824 19.0634C15.2604 19.011 15.1291 18.9834 14.9964 18.9822C14.8636 18.9811 14.7319 19.0064 14.609 19.0566C14.4861 19.1069 14.3745 19.1812 14.2806 19.2751C14.1867 19.369 14.1124 19.4806 14.0621 19.6035C14.0119 19.7264 13.9866 19.8581 13.9877 19.9909C13.9889 20.1236 14.0164 20.2549 14.0689 20.3769C14.1213 20.4989 14.1974 20.6092 14.293 20.7015L16.293 22.7015C16.3858 22.7944 16.496 22.868 16.6173 22.9183C16.7386 22.9686 16.8686 22.9945 17 22.9945C17.1313 22.9945 17.2613 22.9686 17.3826 22.9183C17.5039 22.868 17.6141 22.7944 17.707 22.7015L21.707 18.7015C21.8025 18.6092 21.8787 18.4989 21.9311 18.3769C21.9835 18.2549 22.0111 18.1236 22.0122 17.9909C22.0134 17.8581 21.9881 17.7264 21.9378 17.6035C21.8875 17.4806 21.8132 17.369 21.7194 17.2751C21.6255 17.1812 21.5138 17.1069 21.3909 17.0566C21.268 17.0064 21.1363 16.9811 21.0036 16.9822C20.8708 16.9834 20.7396 17.011 20.6176 17.0634C20.4956 17.1158 20.3852 17.192 20.293 17.2875L17 20.5801L15.707 19.2875Z" fill="#3F51B5"/>
<path d="M8 19.9946C8 21.9724 8.58649 23.9058 9.6853 25.5503C10.7841 27.1948 12.3459 28.4765 14.1732 29.2334C16.0004 29.9903 18.0111 30.1883 19.9509 29.8025C21.8907 29.4166 23.6725 28.4642 25.0711 27.0657C26.4696 25.6672 27.422 23.8853 27.8079 21.9455C28.1937 20.0057 27.9957 17.9951 27.2388 16.1678C26.4819 14.3405 25.2002 12.7787 23.5557 11.6799C21.9112 10.5811 19.9778 9.99463 18 9.99463C15.3488 9.99773 12.807 11.0523 10.9324 12.927C9.05766 14.8017 8.0031 17.3434 8 19.9946ZM26 19.9946C26 21.5769 25.5308 23.1236 24.6518 24.4392C23.7727 25.7548 22.5233 26.7802 21.0615 27.3857C19.5997 27.9912 17.9911 28.1496 16.4393 27.8409C14.8874 27.5322 13.462 26.7703 12.3431 25.6515C11.2243 24.5327 10.4624 23.1072 10.1537 21.5554C9.84504 20.0035 10.0035 18.395 10.609 16.9332C11.2145 15.4714 12.2398 14.2219 13.5554 13.3429C14.871 12.4638 16.4177 11.9946 18 11.9946C20.1211 11.9967 22.1547 12.8402 23.6545 14.3401C25.1544 15.8399 25.9979 17.8735 26 19.9946Z" fill="#3F51B5"/>
</svg>
