<svg width="20" height="20" viewBox="0 0 20 20" fill="none" xmlns="http://www.w3.org/2000/svg">
<path d="M15.5641 16.3392L10.8016 11.5759C8.683 13.0821 5.76364 12.7137 4.08567 10.7283C2.4077 8.74296 2.53091 5.80303 4.36911 3.96504C6.20683 2.12624 9.14705 2.0025 11.1328 3.68038C13.1185 5.35827 13.4871 8.27791 11.9808 10.3967L16.7433 15.16L15.5649 16.3384L15.5641 16.3392ZM7.90411 4.16669C6.32386 4.16634 4.96052 5.2756 4.6395 6.8229C4.31849 8.3702 5.12804 9.93026 6.57801 10.5586C8.02798 11.1869 9.71986 10.7107 10.6293 9.41841C11.5388 8.1261 11.4158 6.3728 10.3349 5.22004L10.8391 5.72004L10.2708 5.15337L10.2608 5.14337C9.63727 4.51602 8.7886 4.16431 7.90411 4.16669Z" fill="#9A9A9A"/>
</svg>
