<svg width="25" height="24" viewBox="0 0 25 24" fill="none" xmlns="http://www.w3.org/2000/svg">
<path d="M4.49996 6.41384L1.25696 3.17184L2.67196 1.75684L5.91396 4.99984H21.156C21.3118 4.99983 21.4655 5.03625 21.6048 5.1062C21.7441 5.17616 21.8651 5.2777 21.9582 5.40273C22.0513 5.52776 22.1138 5.67282 22.1409 5.82632C22.1679 5.97983 22.1587 6.13753 22.114 6.28684L19.714 14.2868C19.6522 14.4929 19.5257 14.6736 19.3531 14.802C19.1805 14.9305 18.9711 14.9999 18.756 14.9998H6.49996V16.9998H17.5V18.9998H5.49996C5.23474 18.9998 4.98039 18.8945 4.79285 18.7069C4.60531 18.5194 4.49996 18.2651 4.49996 17.9998V6.41384ZM6.49996 6.99984V12.9998H18.012L19.812 6.99984H6.49996ZM5.99996 22.9998C5.60213 22.9998 5.2206 22.8418 4.9393 22.5605C4.65799 22.2792 4.49996 21.8977 4.49996 21.4998C4.49996 21.102 4.65799 20.7205 4.9393 20.4392C5.2206 20.1579 5.60213 19.9998 5.99996 19.9998C6.39778 19.9998 6.77931 20.1579 7.06062 20.4392C7.34192 20.7205 7.49996 21.102 7.49996 21.4998C7.49996 21.8977 7.34192 22.2792 7.06062 22.5605C6.77931 22.8418 6.39778 22.9998 5.99996 22.9998ZM18 22.9998C17.6021 22.9998 17.2206 22.8418 16.9393 22.5605C16.658 22.2792 16.5 21.8977 16.5 21.4998C16.5 21.102 16.658 20.7205 16.9393 20.4392C17.2206 20.1579 17.6021 19.9998 18 19.9998C18.3978 19.9998 18.7793 20.1579 19.0606 20.4392C19.3419 20.7205 19.5 21.102 19.5 21.4998C19.5 21.8977 19.3419 22.2792 19.0606 22.5605C18.7793 22.8418 18.3978 22.9998 18 22.9998Z" fill="#242424"/>
</svg>
